<svg width="60" height="38" viewBox="0 0 60 38" fill="none" xmlns="http://www.w3.org/2000/svg">
<path d="M7.79486 10.4609L8.21673 9.66406V14H7.79486V10.4609ZM8.63861 8.84375L9.06048 8.04688V14H8.63861V8.84375ZM9.48236 7.25L9.90423 6.44727V14H9.48236V7.25ZM6.65228 10.2617L6.41205 9.82227L9.3183 4.29688H9.79291L6.65228 10.2617ZM6.16595 9.3418L5.91986 8.89648L8.35736 4.29688H8.83783L6.16595 9.3418ZM3.34173 9.71094L3.76361 10.5078V14H3.34173V9.71094ZM2.49798 8.10547L2.91986 8.90234V14H2.49798V8.10547ZM1.65423 6.5L2.07611 7.30273V14H1.65423V6.5ZM5.06439 11.4688H4.58978L1.23236 5.09961V14H0.810484V4.29688H1.28509L5.06439 11.4688ZM6.01947 11.4688H5.539L1.76556 4.29688H2.24603L6.01947 11.4688ZM10.3261 5.09961L6.96869 11.4688H6.48822L2.72064 4.29688H3.19525L6.73431 11.0234L10.2675 4.29688H10.748V14H10.3261V5.09961Z" fill="#FE0100"/>
<path d="M16.0507 11.1523L16.2206 10.7305H17.662L17.832 11.1523H16.0507ZM15.7226 11.9961L15.8867 11.5742H17.9902L18.1718 11.9961H15.7226ZM15.3945 12.8398L15.5585 12.418H18.3242L18.4999 12.8398H15.3945ZM11.9667 14H11.5097L15.3476 4.29688H15.8046L19.6367 14H19.1855L15.5761 4.86523L11.9667 14ZM15.6288 5.86719L15.8691 6.40625L12.8691 14H12.4179L15.6288 5.86719ZM16.0976 6.98047L16.3202 7.56055L13.7831 14H13.3261L16.0976 6.98047ZM16.5429 8.14062L16.7656 8.73242L14.6855 14H14.2343L16.5429 8.14062ZM22.3613 14H21.9042L18.0722 4.29688H18.5234L22.3613 14ZM17.6152 4.29688L21.4531 14H21.0019L17.164 4.29688H17.6152ZM16.707 4.29688L20.5449 14H20.0878L16.2558 4.29688H16.707Z" fill="#079400"/>
<path d="M30.0839 10.4609L30.5058 9.66406V14H30.0839V10.4609ZM30.9277 8.84375L31.3495 8.04688V14H30.9277V8.84375ZM31.7714 7.25L32.1933 6.44727V14H31.7714V7.25ZM28.9413 10.2617L28.7011 9.82227L31.6074 4.29688H32.082L28.9413 10.2617ZM28.455 9.3418L28.2089 8.89648L30.6464 4.29688H31.1269L28.455 9.3418ZM25.6308 9.71094L26.0527 10.5078V14H25.6308V9.71094ZM24.787 8.10547L25.2089 8.90234V14H24.787V8.10547ZM23.9433 6.5L24.3652 7.30273V14H23.9433V6.5ZM27.3535 11.4688H26.8788L23.5214 5.09961V14H23.0995V4.29688H23.5742L27.3535 11.4688ZM28.3085 11.4688H27.8281L24.0546 4.29688H24.5351L28.3085 11.4688ZM32.6152 5.09961L29.2577 11.4688H28.7773L25.0097 4.29688H25.4843L29.0234 11.0234L32.5566 4.29688H33.037V14H32.6152V5.09961Z" fill="#010195"/>
<path d="M14.6894 18.6777L14.4013 18.8682C14.2255 18.6077 13.996 18.4027 13.7128 18.2529C13.4329 18.0999 13.1285 18.0234 12.7997 18.0234C12.2659 18.0234 11.8102 18.2122 11.4326 18.5898C11.055 18.9674 10.8661 19.4232 10.8661 19.957C10.8661 20.4909 11.055 20.9466 11.4326 21.3242C11.8102 21.7018 12.2659 21.8906 12.7997 21.8906C13.1285 21.8906 13.4329 21.8141 13.7128 21.6611C13.996 21.5081 14.2255 21.3014 14.4013 21.041L14.6845 21.2461C14.4762 21.5521 14.206 21.7946 13.874 21.9736C13.5419 22.1527 13.1839 22.2422 12.7997 22.2422C12.4905 22.2422 12.1943 22.182 11.9111 22.0615C11.6311 21.9411 11.3886 21.7783 11.1835 21.5732C10.9785 21.3682 10.8157 21.1257 10.6952 20.8457C10.5748 20.5625 10.5146 20.2663 10.5146 19.957C10.5146 19.6478 10.5748 19.3532 10.6952 19.0732C10.8157 18.79 10.9785 18.5459 11.1835 18.3408C11.3886 18.1357 11.6311 17.973 11.9111 17.8525C12.1943 17.7321 12.4905 17.6719 12.7997 17.6719C13.1871 17.6719 13.5468 17.763 13.8788 17.9453C14.2109 18.1243 14.4811 18.3685 14.6894 18.6777ZM15.2704 18.2773L14.9775 18.4678C14.7366 18.1162 14.4241 17.8379 14.04 17.6328C13.6591 17.4245 13.2457 17.3203 12.7997 17.3203C12.3212 17.3203 11.8801 17.4391 11.4765 17.6768C11.0729 17.9111 10.7522 18.2301 10.5146 18.6338C10.2802 19.0374 10.163 19.4785 10.163 19.957C10.163 20.4355 10.2802 20.8766 10.5146 21.2803C10.7522 21.6839 11.0729 22.0046 11.4765 22.2422C11.8801 22.4766 12.3212 22.5938 12.7997 22.5938C13.2457 22.5938 13.6607 22.4896 14.0449 22.2812C14.429 22.0729 14.7415 21.7913 14.9824 21.4365L15.2704 21.6367C14.997 22.0404 14.6422 22.3594 14.206 22.5938C13.773 22.8281 13.3043 22.9453 12.7997 22.9453C12.2594 22.9453 11.7597 22.8118 11.3007 22.5449C10.8417 22.278 10.4788 21.915 10.2119 21.4561C9.94492 20.9971 9.81146 20.4974 9.81146 19.957C9.81146 19.4167 9.94492 18.917 10.2119 18.458C10.4788 17.999 10.8417 17.6361 11.3007 17.3691C11.7597 17.1022 12.2594 16.9688 12.7997 16.9688C13.3043 16.9688 13.773 17.0859 14.206 17.3203C14.6422 17.5547 14.997 17.8737 15.2704 18.2773ZM15.8564 17.8867L15.5634 18.0771C15.2574 17.6279 14.8603 17.2731 14.372 17.0127C13.887 16.749 13.3629 16.6172 12.7997 16.6172C12.3473 16.6172 11.9143 16.7051 11.5009 16.8809C11.0875 17.0566 10.7311 17.2943 10.4316 17.5938C10.1354 17.89 9.89935 18.2448 9.72357 18.6582C9.54779 19.0716 9.4599 19.5046 9.4599 19.957C9.4599 20.4095 9.54779 20.8424 9.72357 21.2559C9.89935 21.6693 10.1354 22.0257 10.4316 22.3252C10.7311 22.6214 11.0875 22.8574 11.5009 23.0332C11.9143 23.209 12.3473 23.2969 12.7997 23.2969C13.3661 23.2969 13.8919 23.165 14.3769 22.9014C14.8619 22.6377 15.2574 22.2812 15.5634 21.832L15.8466 22.042C15.5081 22.5368 15.0702 22.929 14.5331 23.2188C13.9993 23.5052 13.4215 23.6484 12.7997 23.6484C12.1324 23.6484 11.5156 23.484 10.9492 23.1553C10.3827 22.8232 9.93353 22.374 9.6015 21.8076C9.27272 21.2412 9.10834 20.6243 9.10834 19.957C9.10834 19.2897 9.27272 18.6729 9.6015 18.1064C9.93353 17.54 10.3827 17.0924 10.9492 16.7637C11.5156 16.4316 12.1324 16.2656 12.7997 16.2656C13.4247 16.2656 14.0058 16.4121 14.5429 16.7051C15.08 16.9948 15.5178 17.3887 15.8564 17.8867ZM16.4326 17.4863L16.1396 17.6768C15.7685 17.1331 15.2883 16.7035 14.6992 16.3877C14.1132 16.0719 13.4801 15.9141 12.7997 15.9141C12.2529 15.9141 11.7288 16.0215 11.2275 16.2363C10.7294 16.4479 10.2997 16.7344 9.93841 17.0957C9.57709 17.457 9.289 17.8883 9.07416 18.3896C8.86257 18.8877 8.75677 19.4102 8.75677 19.957C8.75677 20.5039 8.86257 21.028 9.07416 21.5293C9.289 22.0273 9.57709 22.457 9.93841 22.8184C10.2997 23.1797 10.7294 23.4678 11.2275 23.6826C11.7288 23.8942 12.2529 24 12.7997 24C13.4801 24 14.1148 23.8405 14.704 23.5215C15.2932 23.2025 15.7734 22.7712 16.1445 22.2275L16.4277 22.4424C16.024 23.0283 15.5032 23.4938 14.8652 23.8389C14.2272 24.1807 13.5387 24.3516 12.7997 24.3516C12.204 24.3516 11.6344 24.2344 11.0908 24C10.5504 23.7689 10.0833 23.458 9.68939 23.0674C9.29877 22.6735 8.98627 22.2064 8.75189 21.666C8.52077 21.1224 8.40521 20.5527 8.40521 19.957C8.40521 19.3613 8.52077 18.7933 8.75189 18.2529C8.98627 17.7093 9.29877 17.2422 9.68939 16.8516C10.0833 16.4577 10.5504 16.1452 11.0908 15.9141C11.6344 15.6797 12.204 15.5625 12.7997 15.5625C13.5419 15.5625 14.232 15.735 14.8701 16.0801C15.5081 16.4251 16.0289 16.8939 16.4326 17.4863ZM23.5712 19.7764H23.9228V24H23.5712V19.7764ZM24.9775 19.7764H25.329V24H24.9775V19.7764ZM24.2744 19.7764H24.6259V24H24.2744V19.7764ZM23.2197 19.7764V24C22.6012 24.2344 21.9599 24.3516 21.2958 24.3516C20.7197 24.3516 20.1679 24.2458 19.6406 24.0342C19.1132 23.8226 18.6494 23.5296 18.249 23.1553C17.8486 22.7777 17.5279 22.3122 17.287 21.7588C17.0494 21.2021 16.9306 20.6016 16.9306 19.957C16.9306 19.3613 17.0462 18.7933 17.2773 18.2529C17.5117 17.7093 17.8242 17.2422 18.2148 16.8516C18.6087 16.4577 19.0758 16.1452 19.6161 15.9141C20.1598 15.6797 20.7294 15.5625 21.3251 15.5625C22.0673 15.5625 22.7574 15.735 23.3954 16.0801C24.0335 16.4251 24.5543 16.8939 24.9579 17.4863L24.665 17.6768C24.2939 17.1331 23.8137 16.7035 23.2245 16.3877C22.6386 16.0719 22.0055 15.9141 21.3251 15.9141C20.7783 15.9141 20.2542 16.0215 19.7529 16.2363C19.2548 16.4479 18.8251 16.7344 18.4638 17.0957C18.1025 17.457 17.8144 17.8883 17.5995 18.3896C17.388 18.8877 17.2822 19.4102 17.2822 19.957C17.2822 20.5462 17.3912 21.0964 17.6093 21.6074C17.8307 22.1185 18.1236 22.5465 18.4882 22.8916C18.8561 23.2367 19.2825 23.5085 19.7675 23.707C20.2525 23.9023 20.7571 24 21.2812 24C21.8313 24 22.3603 23.9137 22.8681 23.7412V23.4043C22.3831 23.5671 21.8736 23.6484 21.3398 23.6484C20.9524 23.6484 20.5748 23.5947 20.207 23.4873C19.8424 23.3766 19.5038 23.2155 19.1913 23.0039C18.8821 22.7891 18.6103 22.5352 18.3759 22.2422C18.1448 21.946 17.9625 21.6025 17.829 21.2119C17.6988 20.818 17.6337 20.3997 17.6337 19.957C17.6337 19.2897 17.7981 18.6729 18.1269 18.1064C18.4589 17.54 18.9081 17.0924 19.4745 16.7637C20.041 16.4316 20.6578 16.2656 21.3251 16.2656C21.9501 16.2656 22.5312 16.4121 23.0683 16.7051C23.6054 16.9948 24.0432 17.3887 24.3818 17.8867L24.0888 18.0771C23.7828 17.6279 23.3857 17.2731 22.8974 17.0127C22.4124 16.749 21.8883 16.6172 21.3251 16.6172C20.8727 16.6172 20.4397 16.7051 20.0263 16.8809C19.6129 17.0566 19.2564 17.2943 18.957 17.5938C18.6607 17.89 18.4247 18.2448 18.249 18.6582C18.0732 19.0716 17.9853 19.5046 17.9853 19.957C17.9853 20.3639 18.0439 20.7464 18.1611 21.1045C18.2815 21.4593 18.4459 21.7702 18.6542 22.0371C18.8658 22.3008 19.1116 22.5286 19.3915 22.7207C19.6715 22.9095 19.9758 23.0527 20.3046 23.1504C20.6367 23.248 20.9768 23.2969 21.3251 23.2969C21.8655 23.2969 22.3798 23.2057 22.8681 23.0234V22.6719C22.3863 22.8574 21.8834 22.9502 21.3593 22.9502C20.9622 22.9502 20.5829 22.8835 20.2216 22.75C19.8603 22.6133 19.538 22.4212 19.2548 22.1738C18.9749 21.9264 18.7519 21.6107 18.5859 21.2266C18.4199 20.8424 18.3369 20.4193 18.3369 19.957C18.3369 19.4167 18.4703 18.917 18.7372 18.458C19.0042 17.999 19.3671 17.6361 19.8261 17.3691C20.2851 17.1022 20.7848 16.9688 21.3251 16.9688C21.8297 16.9688 22.2984 17.0859 22.7314 17.3203C23.1676 17.5547 23.5224 17.8737 23.7958 18.2773L23.5029 18.4678C23.262 18.1162 22.9495 17.8379 22.5654 17.6328C22.1845 17.4245 21.7711 17.3203 21.3251 17.3203C20.8466 17.3203 20.4055 17.4391 20.0019 17.6768C19.5982 17.9111 19.2776 18.2301 19.04 18.6338C18.8056 19.0374 18.6884 19.4785 18.6884 19.957C18.6884 20.2891 18.7356 20.5983 18.83 20.8848C18.9244 21.1712 19.0546 21.4186 19.2206 21.627C19.3867 21.8353 19.5803 22.0127 19.8017 22.1592C20.0263 22.3057 20.2672 22.4163 20.5244 22.4912C20.7815 22.5628 21.0484 22.5986 21.3251 22.5986C21.8753 22.5986 22.3896 22.4896 22.8681 22.2715V21.9346C22.4059 22.1396 21.9062 22.2422 21.3691 22.2422C21.0598 22.2422 20.7685 22.195 20.4951 22.1006C20.2216 22.0062 19.9742 21.8678 19.7529 21.6855C19.5348 21.5033 19.3606 21.264 19.2304 20.9678C19.1035 20.6683 19.04 20.3314 19.04 19.957C19.04 19.6478 19.1002 19.3532 19.2206 19.0732C19.3411 18.79 19.5038 18.5459 19.7089 18.3408C19.914 18.1357 20.1565 17.973 20.4365 17.8525C20.7197 17.7321 21.0159 17.6719 21.3251 17.6719C21.7125 17.6719 22.0722 17.763 22.4042 17.9453C22.7363 18.1243 23.0064 18.3685 23.2148 18.6777L22.9267 18.8682C22.7509 18.6077 22.5214 18.4027 22.2382 18.2529C21.9583 18.0999 21.6539 18.0234 21.3251 18.0234C20.7913 18.0234 20.3355 18.2122 19.9579 18.5898C19.5803 18.9674 19.3915 19.4232 19.3915 19.957C19.3915 20.2858 19.4452 20.5771 19.5527 20.8311C19.6601 21.0817 19.8066 21.2835 19.9921 21.4365C20.1809 21.5863 20.3893 21.7002 20.6171 21.7783C20.8482 21.8532 21.0956 21.8906 21.3593 21.8906C21.8997 21.8906 22.4026 21.7783 22.8681 21.5537V19.7764H23.2197Z" fill="#FABA33"/>
</svg>
